# xmcd CD database file
#
# Track frame offsets:
#	150
#	21277
#	47983
#	69842
#	97309
#	128860
#	142582
#	187278
#	208347
#	230065
#	254119
#	279473
#	294339
#	316897
#
# Disc length: 4480 seconds
#
# Revision: 0
# Processed by: cddbd v1.5.2PL0 Copyright (c) Steve Scherf et al.
# Submitted via: CDex 1.85
#
DISCID=e1117e0e
DTITLE=Nunzio Rotondo - Sound  and silence
DYEAR=1900
DGENRE=Jazz
TTITLE0=1 - Sir Riccardo
TTITLE1=2 - Garinepaulus
TTITLE2=3 - Ah - Leu - Cha
TTITLE3=4 - Cheek to Cheek
TTITLE4=5 - Nhoade
TTITLE5=6 - Nhoade
TTITLE6=7 - Hormanine
TTITLE7=8 - Sanghai
TTITLE8=9 - I'm an Old Cowhand
TTITLE9=10 - The Lady is a Tramp
TTITLE10=11 - Stuzzicontano
TTITLE11=12 - Oghonothe
TTITLE12=13 - De Concilius
TTITLE13=14 - Lo sai che il cane nostro sale pure sugli alberi?
EXTD=
EXTT0=
EXTT1=
EXTT2=
EXTT3=
EXTT4=
EXTT5=
EXTT6=
EXTT7=
EXTT8=
EXTT9=
EXTT10=
EXTT11=
EXTT12=
EXTT13=
PLAYORDER=
